<?xml version="1.0"?>
<svg xmlns:rdf="http://www.w3.org/1999/02/22-rdf-syntax-ns#" xmlns="http://www.w3.org/2000/svg" xmlns:cc="http://web.resource.org/cc/" xmlns:dc="http://purl.org/dc/elements/1.1/" xmlns:svg="http://www.w3.org/2000/svg" viewBox="0 0 998 988">
  <path d="m58 839l507-77 393 105v98l-468 18-399-7-33-137z" fill="#89f7ff"/>
  <path d="m320 931l-4-4v-12l-4-4-8-8-8-7-8-8-8-7-8-8-8-8-8-7-8-7 9-12 9-12 8-12 7-13 5-12 6-14 3-13 3-13 2-8 3-7 4-7 4-7 5-7 6-7 5-6 5-6 6-6 7-5 7-6 6-6 6-6 7-5 6-7 7-5v-1l614-628-20-20-618 627h-1v1l-7 7-7 6-7 7-7 7-7 7-6 7-8 7-6 7-4 4-5 4-4 4-5 3-5 3-5 3-5 2-6 2-6 3-5 2-6 1-5 2-6 1-6 1-6 2-6 1-10 2-10 3-9 5-9 5-8 6-8 6-8 7-8 7h-2l-5-5-5-5-6-5-6-5-5-5-5-5-6-5-6-5-3-3-3-3-3-3-3-4-4-3-4-2-4-2h-5l-2 1-2 2-3 2-2 1-2-1-2-1-3 1h-2l-2 2-2 2-2 1-2 1-3 2-2 2-1 1-2 1-6 3-5 3-6 3-5 4-6 4-4 5-4 5-4 5v3l1 3v2l2 3 7 7 7 6 6 6 8 7 7 7 6 6 7 6 8 7 5 5 5 5 6 5 6 5 5 4 6 6 5 5 6 5 62 54 27 24 6 7 6 7 7 6 7 7 7 6 6 6 7 7 5 7 1 1v1h16l3-1 3-1 3-1 6-2 6-4 5-3 6-5 5-4 5-5 5-4 5-4 2-3 2-2 2-3 2-3 2-3 1-2-1-3-2-3z"/>
  <path d="m281 930h-1l-3-3-4-4-3-3-4-4-4-3-4-4-4-3-3-3-4-4-5-5-4-4-5-4-5-4-4-4-4-4-4-5-4-1-3-4-3-4-4-2-5-6-7-7-10-9-10-10-10-9-9-9-7-7-5-5-4-2-3-2-4-3-2-3-3-3-2-3-3-3-3-2-2-2-6-5-9-8-9-9-10-9-9-9-7-6-4-3v-9l2-3-6 2-4 4-4 3-4 3-4 2-5 2-4 2-5 2-4 3 229 209 31-14z" fill="#eabca0"/>
  <path d="m7 748l-1 3-1 3-1 2 2 3 9 8 9 8 9 8 9 9 9 8 9 8 9 9 10 8 2 1 5 5 7 6 10 9 12 11 12 12 15 12 14 14 15 13 14 14 14 12 13 12 10 10 9 9 7 7 4 4 2 3 3 2 3 1h7l4-1 4-1h3l7-4 6-5 7-5 7-5 6-5 6-6 6-6 6-7-2-2-1-2-3-1-1-2-2-1-2-1-2-1h-9l-3 1-3 1-3 1h-2l-2 1h-2l-1-1-31 14-229-209-4 3-4 3-3 3-3 4z" fill="#c4967a"/>
  <ellipse cy="785" cx="47" rx="3" ry="5" fill="#916347"/>
  <ellipse cy="756" cx="15" rx="3" ry="5" fill="#916347"/>
  <circle r="3" cx="83" cy="799" fill="#916347"/>
  <ellipse cy="837" cx="103" rx="3" ry="5" fill="#916347"/>
  <ellipse cy="851" cx="135" rx="3" ry="5" fill="#916347"/>
  <ellipse cy="882" cx="154" rx="3" ry="5" fill="#916347"/>
  <circle r="4" cx="261" cy="953" fill="#916347"/>
  <ellipse cy="960" cx="280" rx="3" ry="5" fill="#916347"/>
  <ellipse cy="902" cx="193" rx="3" ry="5" fill="#916347"/>
  <circle r="3" cx="214" cy="939" fill="#916347"/>
  <circle r="4" cx="236" cy="942" fill="#916347"/>
  <circle r="6" cx="83" cy="778" fill="#bf9175"/>
  <ellipse cy="797" cx="124" rx="6" ry="4" fill="#bf9175"/>
  <circle r="6" cx="170" cy="837" fill="#bf9175"/>
  <ellipse cy="872" cx="189" rx="6" ry="4" fill="#bf9175"/>
  <circle r="3" cx="26" cy="765" fill="#916347"/>
  <circle r="3" cx="20" cy="746" fill="#916347"/>
  <circle r="3" cx="51" cy="726" fill="#bf9175"/>
  <circle r="3" cx="40" cy="733" fill="#bf9175"/>
  <circle r="3" cx="106" cy="787" fill="#bf9175"/>
  <circle r="3" cx="71" cy="748" fill="#bf9175"/>
  <circle r="3" cx="127" cy="819" fill="#bf9175"/>
  <circle r="3" cx="175" cy="858" fill="#bf9175"/>
  <circle r="4" cx="160" cy="826" fill="#bf9175"/>
  <circle r="3" cx="201" cy="888" fill="#bf9175"/>
  <circle r="4" cx="233" cy="897" fill="#bf9175"/>
  <circle r="4" cx="264" cy="925" fill="#bf9175"/>
  <circle r="3" cx="247" cy="911" fill="#bf9175"/>
  <circle r="3" cx="76" cy="814" fill="#916347"/>
  <circle r="3" cx="115" cy="833" fill="#916347"/>
  <circle r="3" cx="276" cy="944" fill="#916347"/>
  <circle r="3" cx="264" cy="967" fill="#916347"/>
  <circle r="3" cx="141" cy="874" fill="#916347"/>
  <circle r="3" cx="168" cy="897" fill="#916347"/>
  <circle r="3" cx="153" cy="866" fill="#916347"/>
  <circle r="3" cx="198" cy="924" fill="#916347"/>
  <circle r="3" cx="229" cy="953" fill="#916347"/>
  <circle r="3" cx="227" cy="933" fill="#916347"/>
  <ellipse cy="774" cx="44" rx="5" ry="3" fill="#916347"/>
  <path d="m65 763v-2l-1-3-1-3-2-1h-3l-2 1h-2l1 1v2l2 3 1 1h4l2 1h1z" fill="#bf9175"/>
  <ellipse cy="746" cx="55" rx="6" ry="4" fill="#bf9175"/>
  <ellipse cy="774" cx="102" rx="6" ry="4" fill="#bf9175"/>
  <circle r="5" cx="107" cy="801" fill="#bf9175"/>
  <circle r="5" cx="139" cy="808" fill="#bf9175"/>
  <circle r="5" cx="146" cy="825" fill="#bf9175"/>
  <ellipse cy="847" cx="158" rx="6" ry="4" fill="#bf9175"/>
  <circle r="5" cx="190" cy="857" fill="#bf9175"/>
  <circle r="5" cx="214" cy="880" fill="#bf9175"/>
  <circle r="5" cx="305" cy="937" fill="#916347"/>
  <circle r="5" cx="222" cy="907" fill="#bf9175"/>
  <circle r="5" cx="247" cy="924" fill="#bf9175"/>
  <ellipse cy="793" cx="65" rx="4" ry="7" fill="#916347"/>
  <ellipse cy="760" cx="84" rx="4" ry="8" fill="#bf9175"/>
  <ellipse cy="816" cx="95" rx="4" ry="8" fill="#916347"/>
  <ellipse cy="852" cx="122" rx="4" ry="8" fill="#916347"/>
  <ellipse cy="880" cx="167" rx="4" ry="7" fill="#916347"/>
  <ellipse cy="911" cx="184" rx="4" ry="7" fill="#916347"/>
  <ellipse cy="922" cx="213" rx="4" ry="8" fill="#916347"/>
  <ellipse cy="966" cx="248" rx="4" ry="8" fill="#916347"/>
  <ellipse cy="943" cx="293" rx="4" ry="8" fill="#916347"/>
  <path d="m63 720l5 4 7 6 10 9 10 10 11 10 10 10 9 9 8 7 1-3 1-2 1-3 2-2-68-63-2 1-2 2-1 3-2 2z" fill="#494949"/>
  <path d="m143 792l9 8 11 9 11 11 11 10 9 9 7 8 6 6 2 2 2-2 2-2 1-2 2-2-58-53-10-10-1 2-2 2-1 2-1 2z" fill="#494949"/>
  <path d="m220 866l2 3 5 4 6 6 9 7 8 9 9 8 9 8 7 6 3 3 4 3 4 2 4-3h2l2-1h3l-64-59-6-5-1 3-2 2-2 2-2 2z" fill="#494949"/>
  <path d="m70 712l68 63 1-2 2-1 1-1 1-2-65-62-2 1-2 1-2 1-2 2z" fill="#d1d1d1"/>
  <path d="m148 784l10 10 58 53 1-1 1-1 1-1 1-1-69-62v1h-1l-1 1-1 1z" fill="#d1d1d1"/>
  <path d="m227 857l6 5 64 59h9l-73-69-2 1-1 1-2 2-1 1z" fill="#d1d1d1"/>
  <path d="m115 739l-5-5-4-4-5-4-4-4-4-4-5-4-5-3-5-4 65 62 1-1 1-1-30-28z" fill="#494949"/>
  <path d="m154 778l-1 1-1 1-1 1 69 62h1v-1h1l1-1-6-6-8-8-11-9-11-10-11-10-10-8-7-8-5-4z" fill="#494949"/>
  <path d="m312 920l-3-4-4-4-3-4-4-4-5-3-4-4-4-4-4-4-1-1-3-4-5-4-6-6-8-6-7-7-6-6-6-5h-2l-2 1h-1l-1 1 73 69 1 1h2l1 1h2v-3z" fill="#494949"/>
  <path d="m269 813l8-12 5-12 4-13 4-13 3-14 4-12 6-13 7-12 6-7 8-9 8-8 8-8 9-7 8-6 8-7 8-8 8-8v-3l-1-1-1-1h-1l-44 39-1 2-5 5-6 6-8 8-7 8-7 9-5 8-2 6-1 3-2 6-3 9-3 10-3 12-3 10-3 8-1 5-1 2-3 5-4 7-6 8-6 9-5 8-5 7-4 5-1 1h2l1 1h2l1 1 3-5 4-5 4-6 4-5 4-5 3-4 2-2v-2z" fill="#778e8e"/>
  <path d="m242 834l1-4 3-6 3-7 5-9 4-8 5-6 2-5 1-2 2-5 3-7 4-9 3-10 4-9 3-8 2-6v-2l3-7 5-7 6-9 7-9 8-7 6-6 4-5 1-1 48-44-2-2-2-1-3-1-3-1-9 7-9 7-9 9-8 9-8 9-8 9-9 8-9 8-4 3-5 4-5 2-5 4-5 2-5 2-6 2-5 2-5 1-6 2-5 1-6 1-6 2-6 1-5 1-6 1-8 3-7 3-6 3-7 4-6 4-6 5-6 5-6 5-2 3-3 2-2 2-3 3-2 2-3 2-2 3-2 2-2 5-1 3 1 2h1v-1l1-2 2-3 2-2 3-3 3-3 2-2 2-1 4 3 7 6 11 10 13 11 12 12 13 11 11 9 7 6-1 3-2 2-3 1-3 2-3 4-3 3-2 4v4l2-2 2-2 1-2 2-3 2-2 2-2 2-2 2-2 2-1h7l1-1 1-1 1-1 1-2-1-1v-5z" fill="#bcd3d3"/>
  <path d="m274 793l1-5 3-8 3-10 3-12 3-10 3-9 2-6 1-3 2-6 5-8 7-9 7-8 8-8 6-6 5-5 1-2 44-39h1l-1-1-1-1-1-1h-1l-48 44-1 1-4 5-6 6-8 7-7 9-6 9-5 7-3 7v2l-2 6-3 8-4 9-3 10-4 9-3 7-2 5-1 2-2 5-5 6-4 8-5 9-3 7-3 6-1 4v5l1 1 4-5 5-8 5-7 5-8 5-7 3-6 3-4 1-2z" fill="#e8ffff"/>
  <path d="m257 738h-7l-5 1h-6l-7 2-6 1-6 2-6 3-6 3-5 3-5 3-4 3-3 4-4 3-2 3-2 3-1 3 1 4 2 4 2 4 3 4 3 4 3 2 3 3 4 3 4 4 5 4 5 4 3 3 2 2 1 1 1-1 4-4 4-5 6-7 5-7 5-6 4-7 2-4 3-10 3-13 1-12-5-6 1-1z" fill="#d6eded"/>
  <path d="m992 20l-5-5-34 35-570 584 2 1 1 1v3l43-43 67-68 86-87 85-87 111-114 102-105 76-77 36-38z" fill="#a3c600"/>
  <path d="m978 6l-37 37-542 552-29 30 1 1 2 1 3 1 3 2 73-72 496-509 36-37-6-6z" fill="#f4ff00"/>
  <path d="m987 15l-3-3-34 34-498 512-73 72 1 1 1 1 1 1 1 1 568-581 36-38z" fill="#fff"/>
  <path d="m802 528l-5-7-5-5-6-5-5-4-6-4-6-4-6-3-7-3-6-3-6-2-7-3-7-2-6-2-7-2-6-2-7-3-5-1-7-2-8-2-9-2-10-2-11-1-11-2-11-1-5-1-6-1h-6l-7-1h-40l-5 1h-14l-10 2-10 1-10 2-10 2-9 2-10 2-10 3-9 3-9 3-9 4-10 4-8 4-9 5-9 5-8 6-7 7-4 5-3 6-4 6-2 5-2 7-1 6v7l1 6-5 7-5 8-4 8-4 7-5 8-3 9-2 8-3 9 19 10 1-1v-4l1-2v-4l4-9 3-8 3-9 4-9 4 31 4 43 3 39 1 17-7-8-7-8-5-9-4-9-3-10-3-10-1-10 1-11-20-9v2l-1 3v3l-1 3 1 15 3 15 4 15 6 13 8 13 9 11 11 11 13 9 1 17 3 21 2 26 3 27 2 28 4 23 2 19 3 12 1 4 1 3 1 3 2 3 2 3 3 2 3 2 3 2 6 3 6 3 6 3 6 2 7 3 6 2 6 2 6 3 6 2 7 2 6 2 7 3 6 1 7 2 7 1 6 2 10 1 10 1 10 1h10l10-1 9-1 11-2 10-2 4-2 5-1h4l4-1 4-1 5-1 4-2 4-2 10-3 10-4 10-4 9-5 9-5 10-5 9-6 9-5 2-2 1-3v-6l2-11 6-28 8-42 10-50 10-54 11-54 9-48 8-39v-8l2-9 2-8 2-8 1-9v-8l-2-8-4-7z"/>
  <path d="m375 636l-19-10v2l-1 3v2l-1 3 20 9v-2l1-2v-5z"/>
  <path d="m758 598l-7 2-6 1-6 1-7 2-6 1-7 2-6 1-7 1-6 1-7 1-6 1-7 1-7 1-6 1-7 1-7 1h-3l-1 18-1 21-1 24-1 26 7-5 8-6 7-6 8-7 7-6 7-7 7-6 7-7 8-7 6-7 7-7 7-7 7-8 6-7 6-7 7-8z" fill="#0fd368"/>
  <path d="m801 544l-2-8-4-7-6-7-6-5-7-6-8-4-8-4-7-3-7-4-7-2-8-3-7-3-7-2-7-2-8-3-8-2-7-2-8-2-8-1-7-2-9-2-7-1-8-1-8-1-4 5-5 9-6 10-6 13-5 13-4 15-2 14 1 15 2 5 3 5 4 5 5 4 5 4 7 3 7 2 7 3 8 2 7 1 9 2 7 1 8 1 7 1h7l6 1 7-2 8-1 8-2 7-1 8-2 8-2 7-2 7-2-1-1 1-3v-4l1-5 2-3 2-3 1-2 2-2 2-1 2-1 3-1 3-1h2l4 1 3 1 3 2 2 2 3-4 3-6 2-7 1-5z" fill="#23e87c"/>
  <path d="m601 561l-1-15 2-14 4-15 5-13 6-13 6-10 5-9 4-5h-8l-2-1h-46l-7 1h-7l-7 1h-7l-6 1-6 1-4 1h-5l-6 1-8 2-7 1-8 2-6 1-4 1h-2l-11 3-11 4-10 4-10 4-10 6-10 6-9 7-9 7-6 9-4 10-1 10 3 10 7 8 9 6 9 5 10 4 10 2 10 3 10 3 9 3h2l2 1h3l5 1 6 1 6 1 8 2 8 1 8 1 9 2 9 2 8 1 9 2 8 1 8 1 7 1h7l7-1h36l7-1h7l7-1h6l8-1 6-1 7-1 7-1 7-2h2l3-1h5l-6-1h-7l-7-1-8-1-7-1-9-2-7-1-8-2-7-3-7-2-7-3-5-4-5-4-4-5-3-5-2-5z" fill="#05c95e"/>
  <path d="m669 730l-3 2-3 3-3 3-4 2-3 2-3 3-3 2-3 2-4 67-3 64-2 53-2 34 7-2 7-2 7-2 7-3 7-2 6-3 7-2 7-3 5-5 7-3 6-3 7-3 6-3 5-5 4-5 3-7 7-26 7-34 8-41 8-45 8-45 8-45 7-40 6-33-6 9-7 10-8 10-9 10-10 11-9 10-11 10-10 10-10 9-9 9-9 8-7 6-7 5-5 4-3 3-1 1z" fill="#0fd368"/>
  <path d="m785 570l-2-2h-2l-2 1-3 1-3 3-3 4-1 4-1 5 8-8 2 1h4l3 3 1 3 2 3-1 4-3 6-5 7-4 6-5 5-5 6-6 6-4 6-5 6-79 77-2 2-3 2-2 1-3 2-3 2-3 1-2 2-2 2-2 1-1 1-2 1-2 1v14l3-2 3-2 3-3 3-2 4-2 3-3 3-3 3-2 1-1 3-3 5-4 7-5 7-6 9-8 9-9 10-9 10-10 11-10 9-10 10-11 9-10 8-10 7-10 6-9 2-9 1-8 2-6 1-6-4 1-3-2-2-3-2-2z" fill="#00aa3f"/>
  <path d="m513 756h6l8-1h9l10-1 10-1 9-2 8-1 10-5 9-4 9-6 10-5 9-5 8-6 9-6 9-7 1-26 1-24 1-21 1-18-10 1h-51l-9-1h-16l-7-1-6-1-6-1-6-1-7-1-6-1h-7l-5-2-5-1-5-1-6-1-5-1-5-1-6-2-5-1-5-1-6-1-5-1-5-1-5-2-5-1-5-2-5-1 11 153 8 3 8 2 8 2 8 1 8 2 9 1h8l9 1z" fill="#3aff93"/>
  <path d="m450 778l12 167 7 4 8 3 7 3 7 3 7 3 8 2 8 2 7 2 8 3 6 2 7 2 7 1 7 1 7 1h22l6-1 7-1 8-1 7-1 6-2 7-2 7-2 2-34 2-53 3-64 4-67-10 6-10 6-9 5-9 4-8 3-8 3-7 3-7 2-6 1-6 2h-4l-4 1h-3l-3 1h-2l-6 1h-14l-7 1h-7l-6-1h-6l-7-1h-6l-6-1-6-1-6-1-6-1-5-2-5-1-5-1z" fill="#3aff93"/>
  <path d="m548 786h2l3-1h3l4-1h4l6-2 6-1 7-2 7-3 8-3 8-3 9-4 9-5 10-6 10-6v-14l-6 5-6 3-7 4-6 4-7 4-7 4-8 4-8 4-9 3-10 2-10 2-12 2-12 1-14 1-15-1-17-1-5-1-5-1-5-2-6-1-5-1-5-1-5-1-5-2 1 12 5 1 5 1 5 2 6 1 6 1 6 1 6 1h6l7 1h6l6 1h7l7-1h14l6-1z" fill="#0ace63"/>
  <path d="m411 728l4 2 4 3 5 2 5 2 4 2 5 2 4 2 5 1-11-153-5-2-5-2-5-3-6-2-5-3-4-4-5-3-4-4 2 24 5 52 5 54 2 30z" fill="#7feaaf"/>
  <path d="m416 767l3 27 3 27 2 28 2 28 1 8 1 7 1 9 2 7 2 8 2 7 3 7 4 7 2 1 3 1 3 1 2 1 3 1 2 1 3 1 2 1-12-167-7-2-5-2-5-1-4-2-4-1-3-1-4-1-2-1z" fill="#7feaaf"/>
  <path d="m416 767l2 1 4 1 3 1 4 1 4 2 5 1 5 2 7 2-1-12-5-1-4-1-4-1-4-2-4-2-4-1-5-2-4-1v3l1 3v6z" fill="#54cc89"/>
  <path d="m778 586l-7 9-8 9-8 9-8 9-8 9-8 9-9 8-8 9-9 9-8 8-9 8-9 8-9 7-9 8-9 7-10 7-4 4-6 5-8 5-8 6-8 5-6 3-5 3-1 1-3 1-4 2-4 2-6 2-5 1-5 2h-3l-1 1-6 2-6 1-8 1h-37l-7-1h-7l-5-1h-5l-5-1h-3l-2-1-13-3-13-4-11-5-10-4-10-5-6-3-4-3-2-1-13-10-10-12-7-14-5-14-4-13-2-11-1-7v-3l1-9 3-13 3-12 1-5 3-8 2-7 3-6 2-5 3-4 2-3 1-2 2-2-1-2-8 11-6 13-5 14-4 13-2 12-2 9-1 6v11l1 8 2 9 1 8 3 8 4 7 4 8 5 7 5 7 6 6 8 6 7 6 7 4 8 4 8 3 7 3 8 3 8 3 8 3 8 2 18 3 18 2 15 1 15-1 13-1 14-3 12-3 12-5 11-4 11-6 10-6 10-6 11-7 10-7 11-8 10-8 7-7 8-6 7-7 7-8 7-7 8-6 7-7 7-8 7-7 7-7 7-8 6-7 6-8 7-8 6-8 6-8v-4h-1z" fill="#8c19ff"/>
  <path d="m363 650v3l1 7 2 11 4 13 5 14 7 14 10 12 13 10 2 1 4 3 6 3 10 5 10 4 11 5 13 4 13 3 2 1h3l5 1h5l5 1h7l7 1h37l8-1 6-1 6-2 1-1h3l5-2 5-1 6-2 4-2 4-2 3-1 1-1 5-3 6-3 8-5 8-6 8-5 6-5 4-4-3 2-3 2-3 2-4 2-3 2-3 2-4 2-3 2-6 6-8 4-7 4-7 3-8 3-8 3-8 2-8 1-9 2h-8l-9 1h-8l-9-1h-8l-9-2-9-1-11-1-11-2-10-3-10-3-10-4-9-4-10-5-9-5-9-8-9-9-6-10-6-10-5-10-3-12-3-12-1-12 1-2v-6l2-8 3-11 3-12 4-12 5-12 6-10v-3l-2 2-1 2-2 3-3 4-2 5-3 6-2 7-3 8-1 5-3 12-3 13-1 9z" fill="#e8d3ff"/>
  <metadata>
    <rdf:RDF>
      <cc:Work>
        <dc:format>image/svg+xml</dc:format>
        <dc:type rdf:resource="http://purl.org/dc/dcmitype/StillImage"/>
        <cc:license rdf:resource="http://creativecommons.org/licenses/publicdomain/"/>
        <dc:publisher>
          <cc:Agent rdf:about="http://openclipart.org/">
            <dc:title>Openclipart</dc:title>
          </cc:Agent>
        </dc:publisher>
        <dc:title>Mop and bucket</dc:title>
        <dc:date>2006-12-29T11:02:18</dc:date>
        <dc:description>Converted to SVG from clipart on &#x201C;PC f&#xF6;r alla&#x201D; CD 3-2003.</dc:description>
        <dc:source>http://openclipart.org/detail/2432/mop-and-bucket-by-liftarn</dc:source>
        <dc:creator>
          <cc:Agent>
            <dc:title>liftarn</dc:title>
          </cc:Agent>
        </dc:creator>
        <dc:subject>
          <rdf:Bag>
            <rdf:li>cleaning</rdf:li>
            <rdf:li>clip art</rdf:li>
            <rdf:li>clipart</rdf:li>
            <rdf:li>externalsource</rdf:li>
            <rdf:li>household</rdf:li>
            <rdf:li>image</rdf:li>
            <rdf:li>media</rdf:li>
            <rdf:li>pc for alla</rdf:li>
            <rdf:li>png</rdf:li>
            <rdf:li>public domain</rdf:li>
            <rdf:li>svg</rdf:li>
            <rdf:li>tool</rdf:li>
          </rdf:Bag>
        </dc:subject>
      </cc:Work>
      <cc:License rdf:about="http://creativecommons.org/licenses/publicdomain/">
        <cc:permits rdf:resource="http://creativecommons.org/ns#Reproduction"/>
        <cc:permits rdf:resource="http://creativecommons.org/ns#Distribution"/>
        <cc:permits rdf:resource="http://creativecommons.org/ns#DerivativeWorks"/>
      </cc:License>
    </rdf:RDF>
  </metadata>
</svg>
